<svg width="16" height="14" viewBox="0 0 16 14" xmlns="http://www.w3.org/2000/svg">
<path d="M5.33982 12.9998L11.4236 7.18987C11.8634 6.78313 12.0833 6.28651 12.0833 5.69987C12.0833 5.1532 11.8843 4.68999 11.4864 4.30994C11.0885 3.92978 10.6033 3.73983 10.0309 3.73983C9.41654 3.73983 8.89644 3.94984 8.47064 4.36983L4.17746 8.46986C4.10767 8.53648 4.07279 8.61 4.07279 8.68992C4.07279 8.79661 4.18109 8.95328 4.39737 9.15978C4.61372 9.3664 4.77792 9.46962 4.88963 9.46962C4.97321 9.46962 5.05005 9.43645 5.11992 9.36976L9.41309 5.26987C9.60161 5.10322 9.8075 5.01989 10.0309 5.01989C10.2334 5.01989 10.4009 5.08318 10.5335 5.20987C10.6662 5.33649 10.7325 5.49659 10.7325 5.68992C10.7325 5.91657 10.6488 6.11653 10.4813 6.28994L4.39752 12.0997C3.95785 12.5199 3.4518 12.73 2.87944 12.73C2.4324 12.73 2.06253 12.5898 1.76942 12.3099C1.47623 12.0297 1.32938 11.6766 1.32938 11.2498C1.32938 10.7031 1.54955 10.2198 1.98932 9.80004L10.1254 2.03993C10.6559 1.53326 11.2877 1.28006 12.0207 1.28006C12.7607 1.28006 13.3925 1.52331 13.916 2.01002C14.4395 2.49666 14.7013 3.09327 14.7013 3.80001C14.7013 4.47991 14.4325 5.08319 13.8952 5.60986L7.53923 11.6698C7.46932 11.7364 7.43466 11.8131 7.43466 11.8998C7.43466 12.0065 7.5411 12.1616 7.75396 12.3648C7.96683 12.5682 8.12912 12.6696 8.24079 12.6696C8.32445 12.6696 8.40132 12.6364 8.47112 12.5698L14.8167 6.51984C15.6055 5.75321 16 4.8433 16 3.78996C16 2.72996 15.6125 1.83335 14.8376 1.10003C14.0628 0.366642 13.1203 -1.25876e-07 12.0104 -1.7439e-07C10.9215 -2.2199e-07 9.97555 0.376589 9.17276 1.12991L1.04702 8.89993C0.349188 9.56656 5.01272e-07 10.3498 4.6193e-07 11.2498C4.27836e-07 12.0298 0.275837 12.6832 0.827365 13.2098C1.3786 13.7364 2.06289 14 2.87984 14C3.83609 13.9998 4.65615 13.6663 5.33982 12.9998Z"/>
</svg>
