<svg width="14" height="14" viewBox="0 0 14 14" xmlns="http://www.w3.org/2000/svg">
<path d="M8.3125 1.3125C8.3125 2.03738 7.72488 2.625 7 2.625C6.27512 2.625 5.6875 2.03738 5.6875 1.3125C5.6875 0.587617 6.27512 0 7 0C7.72488 0 8.3125 0.587617 8.3125 1.3125ZM7 11.375C6.27512 11.375 5.6875 11.9626 5.6875 12.6875C5.6875 13.4124 6.27512 14 7 14C7.72488 14 8.3125 13.4124 8.3125 12.6875C8.3125 11.9626 7.72488 11.375 7 11.375ZM12.6875 5.6875C11.9626 5.6875 11.375 6.27512 11.375 7C11.375 7.72488 11.9626 8.3125 12.6875 8.3125C13.4124 8.3125 14 7.72488 14 7C14 6.27512 13.4124 5.6875 12.6875 5.6875ZM2.625 7C2.625 6.27512 2.03738 5.6875 1.3125 5.6875C0.587617 5.6875 0 6.27512 0 7C0 7.72488 0.587617 8.3125 1.3125 8.3125C2.03738 8.3125 2.625 7.72488 2.625 7ZM2.97834 9.70916C2.25345 9.70916 1.66584 10.2968 1.66584 11.0217C1.66584 11.7465 2.25345 12.3342 2.97834 12.3342C3.70322 12.3342 4.29084 11.7465 4.29084 11.0217C4.29084 10.2968 3.70319 9.70916 2.97834 9.70916ZM11.0217 9.70916C10.2968 9.70916 9.70916 10.2968 9.70916 11.0217C9.70916 11.7465 10.2968 12.3342 11.0217 12.3342C11.7465 12.3342 12.3342 11.7465 12.3342 11.0217C12.3342 10.2968 11.7465 9.70916 11.0217 9.70916ZM2.97834 1.66584C2.25345 1.66584 1.66584 2.25345 1.66584 2.97834C1.66584 3.70322 2.25345 4.29084 2.97834 4.29084C3.70322 4.29084 4.29084 3.70322 4.29084 2.97834C4.29084 2.25345 3.70319 1.66584 2.97834 1.66584Z"/>
</svg>
